# xmcd
#
# Track frame offsets: 
#        150
#        14705
#        25635
#        40520
#        54435
#        72177
#        85900
#        103372
#        113912
#        130737
#
# Disc length: 1898 seconds
#
# Revision: 4
# Processed by: cddbd v1.5.2PL0 Copyright (c) Steve Scherf et al.
# Submitted via: ExactAudioCopy v0.99pb5
#
DISCID=7e07680a
DTITLE=Shelby Lynne - Restless
DYEAR=1995
DGENRE=Country
TTITLE0=Slow me down
TTITLE1=Another chance at love
TTITLE2=Talkin' to myself again
TTITLE3=Restless
TTITLE4=Just for the touch of your hand
TTITLE5=Hey now little darlin'
TTITLE6=I'm not the one
TTITLE7=Reach for the rhythm
TTITLE8=Wish I knew
TTITLE9=Swingtown
EXTD=
EXTT0=
EXTT1=
EXTT2=
EXTT3=
EXTT4=
EXTT5=
EXTT6=
EXTT7=
EXTT8=
EXTT9=
PLAYORDER=
